<svg xmlns="http://www.w3.org/2000/svg" width="160.702" height="114.057" viewBox="0 0 160.702 114.057">
  <g id="Groupe_1156" data-name="Groupe 1156" transform="translate(316.012 -330.9)">
    <g id="Groupe_1151" data-name="Groupe 1151" style="mix-blend-mode: normal;isolation: isolate">
      <path id="Tracé_3712" data-name="Tracé 3712" d="M-315.321,440.307l4.565-8.3q14.028,7.719,27.227,7.719a39.45,39.45,0,0,0,16.062-3.2,28.344,28.344,0,0,0,11.455-8.715,19.427,19.427,0,0,0,4.192-12,18.2,18.2,0,0,0-3.819-11.371q-3.819-4.98-13.779-11.539-9.713-6.474-11.829-7.969t-5.52-4.232q-6.06-5.312-6.059-12.535,0-13.032,16.933-25.068a62.041,62.041,0,0,1,10.833-6.143,67.95,67.95,0,0,1,11.995-4.15,47.569,47.569,0,0,1,11.04-1.411q7.552,0,11.87,2.823a8.916,8.916,0,0,1,4.316,7.884q0,6.227-5.229,13.325A55.329,55.329,0,0,1-245.346,368.5l-6.64-3.734a74.114,74.114,0,0,0,10.376-8.3,40.147,40.147,0,0,0,6.557-8.094,14.412,14.412,0,0,0,2.324-7.18,5.971,5.971,0,0,0-1.245-3.818,7.72,7.72,0,0,0-3.569-2.408,17.471,17.471,0,0,0-5.811-.83,43.228,43.228,0,0,0-13.9,2.533,65.545,65.545,0,0,0-13.987,6.682q-14.61,9.213-14.61,20.5a10.982,10.982,0,0,0,1.744,5.936,27.351,27.351,0,0,0,6.1,6.268q4.357,3.486,12.741,8.964,6.227,4.066,9.422,6.641a29.268,29.268,0,0,1,5.271,5.395,20.787,20.787,0,0,1,4.648,13.2,25.193,25.193,0,0,1-2.947,11.455,39.417,39.417,0,0,1-8.342,10.873q-12.618,11.871-35.029,11.871Q-306.855,444.457-315.321,440.307Z" fill="#fff"/>
    </g>
    <g id="Groupe_1152" data-name="Groupe 1152" style="mix-blend-mode: normal;isolation: isolate">
      <path id="Tracé_3713" data-name="Tracé 3713" d="M-315.321,440.307l4.565-8.3q14.028,7.719,27.227,7.719a39.45,39.45,0,0,0,16.062-3.2,28.344,28.344,0,0,0,11.455-8.715,19.427,19.427,0,0,0,4.192-12,18.2,18.2,0,0,0-3.819-11.371q-3.819-4.98-13.779-11.539-9.713-6.474-11.829-7.969t-5.52-4.232q-6.06-5.312-6.059-12.535,0-13.032,16.933-25.068a62.041,62.041,0,0,1,10.833-6.143,67.95,67.95,0,0,1,11.995-4.15,47.569,47.569,0,0,1,11.04-1.411q7.552,0,11.87,2.823a8.916,8.916,0,0,1,4.316,7.884q0,6.227-5.229,13.325A55.329,55.329,0,0,1-245.346,368.5l-6.64-3.734a74.114,74.114,0,0,0,10.376-8.3,40.147,40.147,0,0,0,6.557-8.094,14.412,14.412,0,0,0,2.324-7.18,5.971,5.971,0,0,0-1.245-3.818,7.72,7.72,0,0,0-3.569-2.408,17.471,17.471,0,0,0-5.811-.83,43.228,43.228,0,0,0-13.9,2.533,65.545,65.545,0,0,0-13.987,6.682q-14.61,9.213-14.61,20.5a10.982,10.982,0,0,0,1.744,5.936,27.351,27.351,0,0,0,6.1,6.268q4.357,3.486,12.741,8.964,6.227,4.066,9.422,6.641a29.268,29.268,0,0,1,5.271,5.395,20.787,20.787,0,0,1,4.648,13.2,25.193,25.193,0,0,1-2.947,11.455,39.417,39.417,0,0,1-8.342,10.873q-12.618,11.871-35.029,11.871Q-306.855,444.457-315.321,440.307Z" fill="none" stroke="#fff" stroke-width="1"/>
    </g>
    <g id="Groupe_1153" data-name="Groupe 1153" style="mix-blend-mode: normal;isolation: isolate">
      <path id="Tracé_3714" data-name="Tracé 3714" d="M-223.423,373.821q9.57,0,9.57,9.571v3.588H-230.6v1.2q0,7.178,7.178,7.177,6.509,0,7.106-5.885l2.393.358q-.791,7.92-9.5,7.92-9.57,0-9.57-9.57v-4.785Q-232.993,373.822-223.423,373.821Zm7.178,9.571q0-7.179-7.178-7.178t-7.178,7.178v1.2h14.356Z" fill="#fff"/>
      <path id="Tracé_3715" data-name="Tracé 3715" d="M-200.693,387.89l-7.226,9.857h-3.086l8.78-11.963-8.78-11.963h3.086l7.226,9.858,7.225-9.858h3.087l-8.757,11.963,8.757,11.963h-3.087Z" fill="#fff"/>
    </g>
    <g id="Groupe_1154" data-name="Groupe 1154" style="mix-blend-mode: normal;isolation: isolate">
      <path id="Tracé_3716" data-name="Tracé 3716" d="M-223.423,373.821q9.57,0,9.57,9.571v3.588H-230.6v1.2q0,7.178,7.178,7.177,6.509,0,7.106-5.885l2.393.358q-.791,7.92-9.5,7.92-9.57,0-9.57-9.57v-4.785Q-232.993,373.822-223.423,373.821Zm7.178,9.571q0-7.179-7.178-7.178t-7.178,7.178v1.2h14.356Z" fill="none" stroke="#fff" stroke-width="1"/>
      <path id="Tracé_3717" data-name="Tracé 3717" d="M-200.693,387.89l-7.226,9.857h-3.086l8.78-11.963-8.78-11.963h3.086l7.226,9.858,7.225-9.858h3.087l-8.757,11.963,8.757,11.963h-3.087Z" fill="none" stroke="#fff" stroke-width="1"/>
    </g>
    <g id="Groupe_1155" data-name="Groupe 1155" style="mix-blend-mode: normal;isolation: isolate">
      <path id="Tracé_3718" data-name="Tracé 3718" d="M-231.494,418.036q4.883,0,7.325,2.442v-2.442h2.441V442.45h-2.441v-2.441q-2.442,2.442-7.325,2.441-9.765,0-9.765-9.765V427.8Q-241.259,418.037-231.494,418.036Zm7.325,9.717q-.025-7.275-7.325-7.275-7.323,0-7.324,7.324v4.883q0,7.323,7.324,7.324t7.325-7.324Z" fill="#fff" stroke="#fff" stroke-width="1"/>
      <path id="Tracé_3719" data-name="Tracé 3719" d="M-197.314,427.8V442.45h-2.441V427.8q0-7.324-7.325-7.324T-214.4,427.8V442.45h-2.441V418.036h2.441v2.442q2.442-2.44,7.324-2.442Q-197.313,418.036-197.314,427.8Z" fill="#fff" stroke="#fff" stroke-width="1"/>
      <path id="Tracé_3720" data-name="Tracé 3720" d="M-182.666,440.009h2.442v2.441h-2.442q-9.765,0-9.765-9.765V405.829h2.441v12.207h9.766v2.442h-9.766v12.207Q-189.99,440.008-182.666,440.009Z" fill="#fff" stroke="#fff" stroke-width="1"/>
      <path id="Tracé_3721" data-name="Tracé 3721" d="M-165.576,418.036q9.767,0,9.766,9.766v3.662H-172.9v1.221q0,7.323,7.324,7.324,6.641,0,7.251-6.006l2.442.366q-.806,8.082-9.693,8.081-9.765,0-9.765-9.765V427.8Q-175.341,418.037-165.576,418.036Zm7.325,9.766q0-7.324-7.325-7.324T-172.9,427.8v1.22h14.649Zm-9.4-16.944,4.468-4.467,1.733,1.733-4.467,4.468Z" fill="#fff" stroke="#fff" stroke-width="1"/>
    </g>
    <path id="Tracé_3722" data-name="Tracé 3722" d="M-164.9,367.928l-10.64,1.145.255,2.366,6.606-.712-3.232,4.012a11.38,11.38,0,0,0-6-1.406q-9.765,0-9.765,9.766v4.882q0,9.39,9.036,9.743l.019,2.843-3.691.025.014,2.277,3.691-.024.024,3.691,2.277-.015-.025-3.692,3.691-.024-.015-2.276-3.691.024-.019-2.882q8.211-.742,8.22-9.69V383.1a10.477,10.477,0,0,0-1.975-6.8l3.286-4.084.712,6.605,2.366-.255Zm-5.685,20.053q0,7.325-7.325,7.325t-7.324-7.325V383.1q0-7.324,7.324-7.325t7.325,7.325Z" transform="translate(1)" fill="#9b2a48" stroke="#9b2a48" stroke-width="0.5"/>
  </g>
</svg>
