<svg xmlns="http://www.w3.org/2000/svg" width="68" height="68" viewBox="0 0 68 68">
  <g id="Groupe_9216" data-name="Groupe 9216" transform="translate(-251 -397)">
    <circle id="Ellipse_458" data-name="Ellipse 458" cx="21.5" cy="21.5" r="21.5" transform="translate(261 412)" fill="#eae3ff"/>
    <g id="Groupe_9202" data-name="Groupe 9202" transform="translate(7 28)">
      <rect id="Rectangle_5070" data-name="Rectangle 5070" width="68" height="68" transform="translate(244 369)" fill="none"/>
      <path id="Ellipse_450" data-name="Ellipse 450" d="M21.026-6A27.026,27.026,0,1,1-6,21.026,27.057,27.057,0,0,1,21.026-6Zm0,50.873A23.847,23.847,0,1,0-2.82,21.026,23.874,23.874,0,0,0,21.026,44.873Z" transform="translate(256.889 382.059)" fill="#8468d1"/>
      <path id="Tracé_10090" data-name="Tracé 10090" d="M104.046,155.547a1.589,1.589,0,0,1-1.378-.794,11.136,11.136,0,0,0-19.281,0,1.59,1.59,0,0,1-2.753-1.591,14.315,14.315,0,0,1,24.786,0,1.59,1.59,0,0,1-1.375,2.386Z" transform="translate(184.888 261.846)" fill="#8468d1"/>
      <ellipse id="Ellipse_451" data-name="Ellipse 451" cx="2.5" cy="3" rx="2.5" ry="3" transform="translate(266 395)" fill="#8468d1"/>
      <ellipse id="Ellipse_452" data-name="Ellipse 452" cx="2.5" cy="3" rx="2.5" ry="3" transform="translate(285 395)" fill="#8468d1"/>
    </g>
  </g>
</svg>
