<svg xmlns="http://www.w3.org/2000/svg" width="68" height="68" viewBox="0 0 68 68">
  <g id="Groupe_9214" data-name="Groupe 9214" transform="translate(-57 -397)">
    <circle id="Ellipse_456" data-name="Ellipse 456" cx="21.5" cy="21.5" r="21.5" transform="translate(67 412)" fill="#ffe0e2"/>
    <g id="Groupe_9203" data-name="Groupe 9203" transform="translate(-187 28)">
      <rect id="Rectangle_5070" data-name="Rectangle 5070" width="68" height="68" transform="translate(244 369)" fill="none"/>
      <path id="Ellipse_450" data-name="Ellipse 450" d="M21.026-6A27.026,27.026,0,1,1-6,21.026,27.057,27.057,0,0,1,21.026-6Zm0,50.873A23.847,23.847,0,1,0-2.82,21.026,23.874,23.874,0,0,0,21.026,44.873Z" transform="translate(256.889 382.059)" fill="#c02"/>
      <path id="Tracé_10090" data-name="Tracé 10090" d="M104.046,155.547a1.589,1.589,0,0,1-1.378-.794,11.136,11.136,0,0,0-19.281,0,1.59,1.59,0,0,1-2.753-1.591,14.315,14.315,0,0,1,24.786,0,1.59,1.59,0,0,1-1.375,2.386Z" transform="translate(370.943 563.404) rotate(180)" fill="#c02"/>
    </g>
    <path id="Tracé_10094" data-name="Tracé 10094" d="M43,15.6a4.188,4.188,0,0,0-2.7.9,4.388,4.388,0,0,0-2.7-.9,4.481,4.481,0,0,0-4.5,4.5c0,3.6,6,7.7,6.7,8.1l.5.3.5-.3c.7-.4,6.7-4.2,6.7-8.2A4.461,4.461,0,0,0,43,15.6ZM40.3,26.2c-2.2-1.6-5.3-4.3-5.3-6.1a2.476,2.476,0,0,1,2.5-2.5,2.334,2.334,0,0,1,2,1l.8,1,.8-1a2.61,2.61,0,0,1,2-1,2.476,2.476,0,0,1,2.5,2.5C45.5,22.1,42.5,24.7,40.3,26.2Z" transform="translate(61 402.4)" fill="#bb262c"/>
    <path id="Tracé_10095" data-name="Tracé 10095" d="M20.2,28.6l.5-.3c.7-.4,6.7-4.2,6.7-8.2a4.481,4.481,0,0,0-4.5-4.5,4.188,4.188,0,0,0-2.7.9,4.388,4.388,0,0,0-2.7-.9A4.481,4.481,0,0,0,13,20.1c0,3.6,6,7.7,6.7,8.1Zm-5.3-8.5a2.476,2.476,0,0,1,2.5-2.5,2.334,2.334,0,0,1,2,1l.8,1,.8-1a2.61,2.61,0,0,1,2-1,2.476,2.476,0,0,1,2.5,2.5c0,2-3,4.6-5.2,6.1C18,24.6,14.9,21.9,14.9,20.1Z" transform="translate(61 402.4)" fill="#bb262c"/>
  </g>
</svg>
