<svg xmlns="http://www.w3.org/2000/svg" width="68" height="68" viewBox="0 0 68 68">
  <g id="Groupe_9215" data-name="Groupe 9215" transform="translate(-154 -397)">
    <circle id="Ellipse_457" data-name="Ellipse 457" cx="21.5" cy="21.5" r="21.5" transform="translate(165 412)" fill="#fae4b7"/>
    <g id="smiley-meh" transform="translate(154 397)">
      <rect id="Rectangle_5071" data-name="Rectangle 5071" width="68" height="68" fill="none"/>
      <path id="Ellipse_453" data-name="Ellipse 453" d="M21.094-6A27.094,27.094,0,1,1-6,21.094,27.124,27.124,0,0,1,21.094-6Zm0,51A23.906,23.906,0,1,0-2.812,21.094,23.933,23.933,0,0,0,21.094,45Z" transform="translate(12.906 12.906)" fill="#ffab02"/>
      <path id="Ligne_180" data-name="Ligne 180" d="M16.844-2.812H-4.406A1.594,1.594,0,0,1-6-4.406,1.594,1.594,0,0,1-4.406-6h21.25a1.594,1.594,0,0,1,1.594,1.594A1.594,1.594,0,0,1,16.844-2.812Z" transform="translate(27.781 46.906)" fill="#ffab02"/>
      <circle id="Ellipse_454" data-name="Ellipse 454" cx="2.5" cy="2.5" r="2.5" transform="translate(22 26)" fill="#ffab02"/>
      <circle id="Ellipse_455" data-name="Ellipse 455" cx="2.5" cy="2.5" r="2.5" transform="translate(41 26)" fill="#ffab02"/>
    </g>
  </g>
</svg>
