<svg xmlns="http://www.w3.org/2000/svg" width="85.66" height="60.792" viewBox="0 0 85.66 60.792">
  <g id="Groupe_1190" data-name="Groupe 1190" transform="translate(315.666 -331.15)">
    <g id="Groupe_1151" data-name="Groupe 1151" transform="translate(-315.321 331.4)" style="mix-blend-mode: normal;isolation: isolate">
      <path id="Tracé_3712" data-name="Tracé 3712" d="M-315.321,389.479l2.434-4.427a30.065,30.065,0,0,0,14.52,4.116,21.037,21.037,0,0,0,8.566-1.7,15.115,15.115,0,0,0,6.109-4.648,10.36,10.36,0,0,0,2.235-6.4,9.7,9.7,0,0,0-2.037-6.064,30.909,30.909,0,0,0-7.348-6.154q-5.18-3.452-6.308-4.25t-2.944-2.257a8.632,8.632,0,0,1-3.231-6.685q0-6.95,9.03-13.368a33.079,33.079,0,0,1,5.777-3.276,36.231,36.231,0,0,1,6.4-2.213,25.368,25.368,0,0,1,5.887-.753,11.481,11.481,0,0,1,6.33,1.505,4.755,4.755,0,0,1,2.3,4.2,12.211,12.211,0,0,1-2.789,7.106A29.5,29.5,0,0,1-278,351.187l-3.541-1.991a39.526,39.526,0,0,0,5.533-4.427,21.414,21.414,0,0,0,3.5-4.316,7.687,7.687,0,0,0,1.239-3.829,3.184,3.184,0,0,0-.664-2.036,4.116,4.116,0,0,0-1.9-1.284,9.316,9.316,0,0,0-3.1-.443,23.052,23.052,0,0,0-7.414,1.351,34.956,34.956,0,0,0-7.459,3.563q-7.791,4.913-7.791,10.933a5.857,5.857,0,0,0,.93,3.166,14.587,14.587,0,0,0,3.254,3.343q2.324,1.859,6.795,4.78,3.321,2.169,5.025,3.542a15.608,15.608,0,0,1,2.811,2.877,11.085,11.085,0,0,1,2.479,7.039,13.436,13.436,0,0,1-1.572,6.109,21.021,21.021,0,0,1-4.449,5.8q-6.729,6.331-18.68,6.331Q-310.806,391.692-315.321,389.479Z" transform="translate(315.321 -331.4)" fill="#78c1cb"/>
    </g>
    <g id="Groupe_1152" data-name="Groupe 1152" transform="translate(-315.321 331.4)" style="mix-blend-mode: normal;isolation: isolate">
      <path id="Tracé_3713" data-name="Tracé 3713" d="M-315.321,389.479l2.434-4.427a30.065,30.065,0,0,0,14.52,4.116,21.037,21.037,0,0,0,8.566-1.7,15.115,15.115,0,0,0,6.109-4.648,10.36,10.36,0,0,0,2.235-6.4,9.7,9.7,0,0,0-2.037-6.064,30.909,30.909,0,0,0-7.348-6.154q-5.18-3.452-6.308-4.25t-2.944-2.257a8.632,8.632,0,0,1-3.231-6.685q0-6.95,9.03-13.368a33.079,33.079,0,0,1,5.777-3.276,36.231,36.231,0,0,1,6.4-2.213,25.368,25.368,0,0,1,5.887-.753,11.481,11.481,0,0,1,6.33,1.505,4.755,4.755,0,0,1,2.3,4.2,12.211,12.211,0,0,1-2.789,7.106A29.5,29.5,0,0,1-278,351.187l-3.541-1.991a39.526,39.526,0,0,0,5.533-4.427,21.414,21.414,0,0,0,3.5-4.316,7.687,7.687,0,0,0,1.239-3.829,3.184,3.184,0,0,0-.664-2.036,4.116,4.116,0,0,0-1.9-1.284,9.316,9.316,0,0,0-3.1-.443,23.052,23.052,0,0,0-7.414,1.351,34.956,34.956,0,0,0-7.459,3.563q-7.791,4.913-7.791,10.933a5.857,5.857,0,0,0,.93,3.166,14.587,14.587,0,0,0,3.254,3.343q2.324,1.859,6.795,4.78,3.321,2.169,5.025,3.542a15.608,15.608,0,0,1,2.811,2.877,11.085,11.085,0,0,1,2.479,7.039,13.436,13.436,0,0,1-1.572,6.109,21.021,21.021,0,0,1-4.449,5.8q-6.729,6.331-18.68,6.331Q-310.806,391.692-315.321,389.479Z" transform="translate(315.321 -331.4)" fill="#78c1cb" stroke="#78c1cb" stroke-width="0.5"/>
    </g>
    <g id="Groupe_1153" data-name="Groupe 1153" transform="translate(-271.417 354.022)" style="mix-blend-mode: normal;isolation: isolate">
      <path id="Tracé_3714" data-name="Tracé 3714" d="M-227.89,373.821q5.1,0,5.1,5.1v1.913h-8.931v.638q0,3.828,3.828,3.827,3.471,0,3.79-3.138l1.276.191q-.422,4.224-5.066,4.224-5.1,0-5.1-5.1v-2.552Q-232.993,373.822-227.89,373.821Zm3.828,5.1q0-3.829-3.828-3.828t-3.828,3.828v.638h7.656Z" transform="translate(232.993 -373.821)" fill="#78c1cb"/>
      <path id="Tracé_3715" data-name="Tracé 3715" d="M-205.506,381.324l-3.854,5.257h-1.646l4.682-6.38-4.682-6.38h1.646l3.854,5.257,3.853-5.257h1.646l-4.67,6.38,4.67,6.38h-1.646Z" transform="translate(222.731 -373.821)" fill="#78c1cb"/>
    </g>
    <g id="Groupe_1154" data-name="Groupe 1154" transform="translate(-271.417 354.022)" style="mix-blend-mode: normal;isolation: isolate">
      <path id="Tracé_3716" data-name="Tracé 3716" d="M-227.89,373.821q5.1,0,5.1,5.1v1.913h-8.931v.638q0,3.828,3.828,3.827,3.471,0,3.79-3.138l1.276.191q-.422,4.224-5.066,4.224-5.1,0-5.1-5.1v-2.552Q-232.993,373.822-227.89,373.821Zm3.828,5.1q0-3.829-3.828-3.828t-3.828,3.828v.638h7.656Z" transform="translate(232.993 -373.821)" fill="#78c1cb" stroke="#78c1cb" stroke-width="0.5"/>
      <path id="Tracé_3717" data-name="Tracé 3717" d="M-205.506,381.324l-3.854,5.257h-1.646l4.682-6.38-4.682-6.38h1.646l3.854,5.257,3.853-5.257h1.646l-4.67,6.38,4.67,6.38h-1.646Z" transform="translate(222.731 -373.821)" fill="#78c1cb" stroke="#78c1cb" stroke-width="0.5"/>
    </g>
    <g id="Groupe_1155" data-name="Groupe 1155" transform="translate(-275.825 371.092)" style="mix-blend-mode: normal;isolation: isolate">
      <path id="Tracé_3718" data-name="Tracé 3718" d="M-236.052,418.036a5.308,5.308,0,0,1,3.906,1.3v-1.3h1.3v13.02h-1.3v-1.3a5.305,5.305,0,0,1-3.906,1.3q-5.207,0-5.208-5.208v-2.6Q-241.259,418.037-236.052,418.036Zm3.906,5.182q-.014-3.88-3.906-3.88t-3.906,3.906v2.6q0,3.905,3.906,3.906t3.906-3.906Z" transform="translate(241.259 -411.526)" fill="#78c1cb" stroke="#78c1cb" stroke-width="0.5"/>
      <path id="Tracé_3719" data-name="Tracé 3719" d="M-206.429,423.244v7.812h-1.3v-7.812q0-3.906-3.906-3.906t-3.906,3.906v7.812h-1.3v-13.02h1.3v1.3a5.307,5.307,0,0,1,3.906-1.3Q-206.429,418.036-206.429,423.244Z" transform="translate(229.865 -411.526)" fill="#78c1cb" stroke="#78c1cb" stroke-width="0.5"/>
      <path id="Tracé_3720" data-name="Tracé 3720" d="M-187.224,424.057h1.3v1.3h-1.3q-5.207,0-5.207-5.208V405.829h1.3v6.51h5.208v1.3h-5.208v6.51Q-191.129,424.056-187.224,424.057Z" transform="translate(218.47 -405.829)" fill="#78c1cb" stroke="#78c1cb" stroke-width="0.5"/>
      <path id="Tracé_3721" data-name="Tracé 3721" d="M-170.134,412.6q5.208,0,5.208,5.208v1.953h-9.114v.651q0,3.905,3.906,3.906,3.541,0,3.867-3.2l1.3.2q-.43,4.31-5.169,4.31-5.207,0-5.207-5.208v-2.6Q-175.341,412.6-170.134,412.6Zm3.906,5.208q0-3.906-3.906-3.906t-3.906,3.906v.651h7.812Zm-5.013-9.036,2.383-2.382.924.924-2.382,2.383Z" transform="translate(210.494 -406.091)" fill="#78c1cb" stroke="#78c1cb" stroke-width="0.5"/>
    </g>
    <path id="Tracé_3722" data-name="Tracé 3722" d="M-175.531,367.928l-5.674.611.136,1.262,3.523-.38-1.724,2.14a6.068,6.068,0,0,0-3.2-.75q-5.207,0-5.207,5.208v2.6q0,5.007,4.819,5.2l.01,1.516-1.968.013.007,1.214,1.968-.013.013,1.968,1.214-.008-.013-1.969,1.968-.013-.008-1.214-1.968.013-.01-1.537q4.379-.4,4.384-5.167v-2.6a5.588,5.588,0,0,0-1.053-3.624l1.752-2.178.38,3.522,1.262-.136Zm-3.032,10.694q0,3.906-3.906,3.906t-3.906-3.906v-2.6q0-3.906,3.906-3.906t3.906,3.906Z" transform="translate(-58.072 -17.048)" fill="#9b2a48" stroke="#9b2a48" stroke-width="0.3"/>
  </g>
</svg>
